# xmcd CD database file
# Copyright (C) 1993-1998 Ti Kan
#
# Track frame offsets:
#	150
#	12927
#	21798
#	35824
#	51194
#	65311
#	78711
#	94723
#	104558
#	121761
#	139260
#	151225
#	166084
#	177910
#
# Disc length: 2518 seconds
#
# Revision: 0
# Processed by: cddbd v1.5.2PL0 Copyright (c) Steve Scherf et al.
# Submitted via: CDmax 1.5.3
#
DISCID=b209d40e
DTITLE=Flying W Wranglers - Reel Cowboys, Songs From Western Movies and TV Sho
DTITLE=ws
DYEAR=1993
DGENRE=Country
TTITLE0=Wyatt Earp
TTITLE1=The Rebel Johnny Yuma
TTITLE2=Maverick
TTITLE3=Wild West Medley: a. Wild, Wild West, b. The Lone Ranger (William Tell
TTITLE3=Overture), c. Bonanza
TTITLE4=High Noon
TTITLE5=South of the Border
TTITLE6=Cowboy Night Herd Song
TTITLE7=Paladin
TTITLE8=Ashokan Farewell
TTITLE9=The Ballad of the Alamo
TTITLE10=Buttons and Bows
TTITLE11=Cheyenne
TTITLE12=Back in the Saddle
TTITLE13=Happy Trails
EXTD=
EXTT0=
EXTT1=
EXTT2=
EXTT3=
EXTT4=
EXTT5=
EXTT6=
EXTT7=
EXTT8=
EXTT9=
EXTT10=
EXTT11=
EXTT12=
EXTT13=
PLAYORDER=
